<svg width="260" height="54" viewBox="0 0 260 54" fill="none" xmlns="http://www.w3.org/2000/svg">
<path d="M11.474 1.31994H14.714V23.9999H11.4416L6.38719 12.8867C5.70679 11.2019 4.76719 8.83675 4.21639 7.37875L4.11919 7.44354C4.34599 9.71154 4.50799 13.1135 4.50799 15.2519V23.9999H1.26799V1.31994H4.54039L9.75679 12.8867C10.4372 14.4095 11.2796 16.5155 11.8304 17.8763L11.9276 17.8115C11.6684 15.5759 11.474 12.1739 11.474 10.1651V1.31994Z" fill="white"/>
<path d="M24.4563 24.3887C20.7627 24.3887 18.4623 22.0883 18.4623 17.9087V12.9839C18.4623 8.80435 20.7627 6.50394 24.4563 6.50394C28.1823 6.50394 30.4827 8.80435 30.4827 12.9839V17.9087C30.4827 22.0883 28.1823 24.3887 24.4563 24.3887ZM24.4563 21.3431C26.2383 21.3431 27.3075 20.3063 27.3075 17.9087V12.9839C27.3075 10.5863 26.2383 9.54955 24.4563 9.54955C22.7067 9.54955 21.6375 10.5863 21.6375 12.9839V17.9087C21.6375 20.3063 22.7067 21.3431 24.4563 21.3431Z" fill="white"/>
<path d="M42.3375 18.6539H45.4803C45.1887 22.2827 42.9531 24.3563 39.2595 24.3563C35.6955 24.3563 33.4599 22.0235 33.4599 17.9411V12.8543C33.4599 8.80435 35.6955 6.50394 39.2919 6.50394C42.9531 6.50394 45.2535 8.80435 45.2535 12.8543V16.6451H36.6027V17.9411C36.6027 20.2739 37.6071 21.3431 39.3243 21.3431C41.2359 21.3431 42.0459 20.5007 42.3375 18.6539ZM39.3243 9.45234C37.6071 9.45234 36.6027 10.4891 36.6027 12.8219V14.2799H42.1431V12.8219C42.1431 10.4891 41.1063 9.45234 39.3243 9.45234Z" fill="white"/>
<path d="M63.498 6.50394C66.3816 6.50394 68.1636 8.73955 68.1636 13.3079V23.9999H65.0532V13.4051C65.0532 10.5539 64.2432 9.48475 62.7852 9.48475C61.068 9.48475 59.934 10.9103 59.934 13.4375V23.9999H56.8236V13.4051C56.8236 10.5539 55.9488 9.48475 54.4908 9.48475C52.806 9.48475 51.672 10.9103 51.672 13.4375V23.9999H48.5616V6.92515H50.7972L51.1212 8.83675C51.9636 7.37875 53.3244 6.50394 55.2036 6.50394C57.018 6.50394 58.3788 7.34635 59.1888 9.09595C60.0312 7.44354 61.4892 6.50394 63.498 6.50394Z" fill="white"/>
<path d="M73.3094 4.07395C72.143 4.07395 71.333 3.23154 71.333 2.09754C71.333 0.931146 72.143 0.0887451 73.3094 0.0887451C74.4758 0.0887451 75.3182 0.931146 75.3182 2.09754C75.3182 3.19915 74.4758 4.07395 73.3094 4.07395ZM71.7542 23.9999V6.92515H74.897V23.9999H71.7542Z" fill="white"/>
<path d="M95.8836 23.9999L91.3152 15.7703H89.274V23.9999H86.0016V1.31994H91.866C96.2076 1.31994 98.67 3.91195 98.67 8.41554C98.67 11.9471 97.1796 14.3771 94.5876 15.3167L99.5124 23.9999H95.8836ZM89.274 4.43035V12.6599H91.8012C94.1016 12.6599 95.3004 11.1695 95.3004 8.48034C95.3004 5.79114 94.1016 4.43035 91.8336 4.43035H89.274Z" fill="white"/>
<path d="M107.386 24.3887C103.693 24.3887 101.392 22.0883 101.392 17.9087V12.9839C101.392 8.80435 103.693 6.50394 107.386 6.50394C111.112 6.50394 113.413 8.80435 113.413 12.9839V17.9087C113.413 22.0883 111.112 24.3887 107.386 24.3887ZM107.386 21.3431C109.168 21.3431 110.238 20.3063 110.238 17.9087V12.9839C110.238 10.5863 109.168 9.54955 107.386 9.54955C105.637 9.54955 104.568 10.5863 104.568 12.9839V17.9087C104.568 20.3063 105.637 21.3431 107.386 21.3431Z" fill="white"/>
<path d="M131.715 6.50394C134.599 6.50394 136.381 8.73955 136.381 13.3079V23.9999H133.27V13.4051C133.27 10.5539 132.46 9.48475 131.002 9.48475C129.285 9.48475 128.151 10.9103 128.151 13.4375V23.9999H125.041V13.4051C125.041 10.5539 124.166 9.48475 122.708 9.48475C121.023 9.48475 119.889 10.9103 119.889 13.4375V23.9999H116.779V6.92515H119.014L119.338 8.83675C120.181 7.37875 121.542 6.50394 123.421 6.50394C125.235 6.50394 126.596 7.34635 127.406 9.09595C128.248 7.44354 129.706 6.50394 131.715 6.50394Z" fill="white"/>
<path d="M148.46 18.6539H151.603C151.311 22.2827 149.076 24.3563 145.382 24.3563C141.818 24.3563 139.583 22.0235 139.583 17.9411V12.8543C139.583 8.80435 141.818 6.50394 145.415 6.50394C149.076 6.50394 151.376 8.80435 151.376 12.8543V16.6451H142.725V17.9411C142.725 20.2739 143.73 21.3431 145.447 21.3431C147.359 21.3431 148.169 20.5007 148.46 18.6539ZM145.447 9.45234C143.73 9.45234 142.725 10.4891 142.725 12.8219V14.2799H148.266V12.8219C148.266 10.4891 147.229 9.45234 145.447 9.45234Z" fill="white"/>
<path d="M161.65 6.53634C162.363 6.53634 162.946 6.60115 163.432 6.79555V9.90594C162.817 9.64675 162.169 9.51715 161.326 9.51715C159.188 9.51715 157.827 10.9103 157.827 13.4699V23.9999H154.684V6.92515H156.92L157.276 8.90154C158.151 7.41114 159.609 6.53634 161.65 6.53634Z" fill="white"/>
<path d="M171.174 24.3887C167.48 24.3887 165.18 22.0883 165.18 17.9087V12.9839C165.18 8.80435 167.48 6.50394 171.174 6.50394C174.9 6.50394 177.2 8.80435 177.2 12.9839V17.9087C177.2 22.0883 174.9 24.3887 171.174 24.3887ZM171.174 21.3431C172.956 21.3431 174.025 20.3063 174.025 17.9087V12.9839C174.025 10.5863 172.956 9.54955 171.174 9.54955C169.424 9.54955 168.355 10.5863 168.355 12.9839V17.9087C168.355 20.3063 169.424 21.3431 171.174 21.3431Z" fill="white"/>
<path d="M193.132 24.4211C189.115 24.4211 186.523 21.9263 186.49 17.7791H189.828C189.86 20.1119 191.124 21.2459 193.132 21.2459C195.303 21.2459 196.372 19.9499 196.372 18.1355C196.372 13.6319 186.879 13.3727 186.879 6.63355C186.879 3.36115 189.277 0.898744 193.1 0.898744C196.988 0.898744 199.321 3.39354 199.418 7.24915H196.081C196.016 5.07834 194.882 4.04154 193.132 4.04154C191.286 4.04154 190.216 5.07834 190.216 6.69834C190.216 11.1371 199.742 11.1371 199.742 18.1679C199.742 21.5375 197.377 24.4211 193.132 24.4211Z" fill="white"/>
<path d="M203.954 4.07395C202.787 4.07395 201.977 3.23154 201.977 2.09754C201.977 0.931146 202.787 0.0887451 203.954 0.0887451C205.12 0.0887451 205.962 0.931146 205.962 2.09754C205.962 3.19915 205.12 4.07395 203.954 4.07395ZM202.398 23.9999V6.92515H205.541V23.9999H202.398Z" fill="white"/>
<path d="M224.232 6.50394C227.116 6.50394 228.898 8.73955 228.898 13.3079V23.9999H225.788V13.4051C225.788 10.5539 224.978 9.48475 223.52 9.48475C221.802 9.48475 220.668 10.9103 220.668 13.4375V23.9999H217.558V13.4051C217.558 10.5539 216.683 9.48475 215.225 9.48475C213.54 9.48475 212.406 10.9103 212.406 13.4375V23.9999H209.296V6.92515H211.532L211.856 8.83675C212.698 7.37875 214.059 6.50394 215.938 6.50394C217.752 6.50394 219.113 7.34635 219.923 9.09595C220.766 7.44354 222.224 6.50394 224.232 6.50394Z" fill="white"/>
<path d="M238.094 24.3887C234.4 24.3887 232.1 22.0883 232.1 17.9087V12.9839C232.1 8.80435 234.4 6.50394 238.094 6.50394C241.82 6.50394 244.12 8.80435 244.12 12.9839V17.9087C244.12 22.0883 241.82 24.3887 238.094 24.3887ZM238.094 21.3431C239.876 21.3431 240.945 20.3063 240.945 17.9087V12.9839C240.945 10.5863 239.876 9.54955 238.094 9.54955C236.344 9.54955 235.275 10.5863 235.275 12.9839V17.9087C235.275 20.3063 236.344 21.3431 238.094 21.3431Z" fill="white"/>
<path d="M254.29 6.50394C257.239 6.50394 259.085 8.60994 259.085 13.2755V23.9999H255.943V13.4375C255.943 10.6511 255.197 9.48475 253.545 9.48475C251.763 9.48475 250.629 10.9103 250.629 13.4375V23.9999H247.486V6.92515H249.722L250.046 8.83675C250.921 7.37875 252.346 6.50394 254.29 6.50394Z" fill="white"/>
<path d="M3.34623 39.1943C4.72131 39.1943 5.72315 39.4743 6.35176 40.0341C6.98037 40.5841 7.29467 41.3552 7.29467 42.3472C7.29467 42.7892 7.22101 43.2115 7.07368 43.6142C6.93617 44.0169 6.70535 44.3803 6.38123 44.7045C6.0571 45.0188 5.62493 45.2692 5.08472 45.4559C4.55433 45.6326 3.90117 45.721 3.12523 45.721H1.99079V49.7137H0.399628V39.1943H3.34623ZM3.22836 40.535H1.99079V44.3803H2.94844C3.54758 44.3803 4.0485 44.3165 4.4512 44.1888C4.8539 44.0513 5.15348 43.8401 5.34992 43.5553C5.55618 43.2606 5.65931 42.8776 5.65931 42.4061C5.65931 41.7775 5.46287 41.311 5.06999 41.0065C4.68693 40.6922 4.07306 40.535 3.22836 40.535Z" fill="#B9F3DE"/>
<path d="M14.5183 47.4743C14.5183 47.9948 14.3906 48.4319 14.1353 48.7855C13.8799 49.1391 13.5116 49.4092 13.0303 49.5958C12.549 49.7726 11.9695 49.861 11.2918 49.861C10.732 49.861 10.2507 49.8168 9.84797 49.7284C9.45509 49.6498 9.09168 49.532 8.75773 49.3748V48.0047C9.11132 48.1716 9.51893 48.3239 9.98057 48.4614C10.4422 48.5891 10.894 48.6529 11.336 48.6529C11.9253 48.6529 12.3477 48.5596 12.603 48.373C12.8682 48.1864 13.0008 47.9359 13.0008 47.6216C13.0008 47.4448 12.9517 47.2877 12.8535 47.1501C12.7553 47.0028 12.5687 46.8555 12.2936 46.7082C12.0285 46.551 11.6356 46.3742 11.115 46.1778C10.6141 45.9715 10.1868 45.7702 9.83324 45.5737C9.47965 45.3675 9.20954 45.1268 9.02292 44.8518C8.8363 44.567 8.743 44.2035 8.743 43.7616C8.743 43.074 9.01801 42.5485 9.56804 42.1851C10.1279 41.8119 10.8645 41.6253 11.778 41.6253C12.2593 41.6253 12.7111 41.6744 13.1334 41.7726C13.5656 41.861 13.983 41.9985 14.3857 42.1851L13.8701 43.3785C13.6442 43.2705 13.4084 43.1821 13.1629 43.1133C12.9272 43.0347 12.6865 42.9709 12.441 42.9218C12.2053 42.8727 11.9597 42.8481 11.7043 42.8481C11.2329 42.8481 10.8744 42.9218 10.6288 43.0691C10.3833 43.2164 10.2605 43.4227 10.2605 43.6879C10.2605 43.8745 10.3145 44.0366 10.4226 44.1741C10.5404 44.3116 10.7418 44.4491 11.0266 44.5866C11.3114 44.7241 11.6994 44.8911 12.1905 45.0875C12.6816 45.2741 13.0991 45.4657 13.4428 45.6621C13.7964 45.8586 14.0616 46.0992 14.2384 46.384C14.425 46.6689 14.5183 47.0323 14.5183 47.4743Z" fill="#B9F3DE"/>
<path d="M15.1721 41.7726H16.8517L18.5018 46.2809C18.5902 46.5068 18.6687 46.7278 18.7375 46.9439C18.8062 47.16 18.8652 47.3761 18.9143 47.5921C18.9732 47.7984 19.0174 48.0047 19.0469 48.2109H19.1058C19.1549 47.9556 19.2335 47.656 19.3415 47.3122C19.4496 46.9586 19.5625 46.6099 19.6804 46.2662L21.2421 41.7726H22.9217L19.5183 50.7892C19.3317 51.2999 19.1009 51.737 18.8259 52.1004C18.5509 52.4737 18.2218 52.7585 17.8388 52.9549C17.4655 53.1514 17.0236 53.2496 16.5128 53.2496C16.2673 53.2496 16.0561 53.2349 15.8793 53.2054C15.7025 53.1858 15.5503 53.1612 15.4226 53.1317V51.8942C15.5306 51.9138 15.6583 51.9335 15.8056 51.9531C15.9628 51.9727 16.1248 51.9826 16.2918 51.9826C16.5963 51.9826 16.8566 51.9236 17.0727 51.8058C17.2986 51.6879 17.4852 51.5209 17.6325 51.3049C17.7897 51.0888 17.9223 50.8432 18.0303 50.5682L18.3544 49.7137L15.1721 41.7726Z" fill="#B9F3DE"/>
<path d="M27.3466 49.861C26.6198 49.861 25.9814 49.7186 25.4313 49.4338C24.8813 49.1489 24.4541 48.7069 24.1496 48.1078C23.8451 47.4988 23.6928 46.7278 23.6928 45.7947C23.6928 44.8125 23.8549 44.0169 24.179 43.408C24.513 42.799 24.9599 42.3521 25.5197 42.0673C26.0894 41.7726 26.7377 41.6253 27.4645 41.6253C27.9065 41.6253 28.319 41.6744 28.7021 41.7726C29.0949 41.861 29.4191 41.9641 29.6744 42.082L29.203 43.349C28.928 43.241 28.6333 43.1477 28.319 43.0691C28.0145 42.9905 27.7248 42.9512 27.4498 42.9512C26.9587 42.9512 26.551 43.0593 26.2269 43.2754C25.9126 43.4816 25.6769 43.7959 25.5197 44.2183C25.3724 44.6308 25.2987 45.1514 25.2987 45.78C25.2987 46.3791 25.3773 46.885 25.5345 47.2975C25.6916 47.71 25.9224 48.0243 26.2269 48.2404C26.5412 48.4467 26.9292 48.5498 27.3908 48.5498C27.8328 48.5498 28.2208 48.5007 28.5547 48.4025C28.8887 48.3042 29.203 48.1765 29.4977 48.0194V49.3748C29.2128 49.5418 28.9034 49.6646 28.5695 49.7432C28.2355 49.8217 27.8279 49.861 27.3466 49.861Z" fill="#B9F3DE"/>
<path d="M32.9339 41.5074C32.9339 41.753 32.9241 41.9985 32.9044 42.2441C32.8848 42.4896 32.8651 42.691 32.8455 42.8481H32.9486C33.1156 42.5731 33.3219 42.3472 33.5674 42.1704C33.8228 41.9936 34.1027 41.861 34.4072 41.7726C34.7215 41.6842 35.0407 41.64 35.3648 41.64C35.9934 41.64 36.5189 41.7431 36.9413 41.9494C37.3734 42.1458 37.6976 42.4601 37.9136 42.8923C38.1396 43.3147 38.2525 43.8647 38.2525 44.5424V49.7137H36.7055V44.7634C36.7055 44.1446 36.5729 43.683 36.3078 43.3785C36.0524 43.0642 35.6399 42.907 35.0702 42.907C34.53 42.907 34.1027 43.0151 33.7884 43.2312C33.4839 43.4473 33.2629 43.7665 33.1254 44.1888C32.9977 44.6013 32.9339 45.1121 32.9339 45.721V49.7137H31.3722V38.5166H32.9339V41.5074Z" fill="#B9F3DE"/>
<path d="M47.6504 45.7358C47.6504 46.3939 47.562 46.9783 47.3852 47.489C47.2084 47.9998 46.958 48.4319 46.6339 48.7855C46.3097 49.1391 45.9168 49.4092 45.4552 49.5958C44.9936 49.7726 44.473 49.861 43.8935 49.861C43.3631 49.861 42.872 49.7726 42.4202 49.5958C41.9684 49.4092 41.5755 49.1391 41.2416 48.7855C40.9175 48.4319 40.6621 47.9998 40.4755 47.489C40.2888 46.9783 40.1955 46.3889 40.1955 45.721C40.1955 44.8469 40.3429 44.1053 40.6375 43.4964C40.942 42.8874 41.3742 42.4258 41.934 42.1115C42.5037 41.7873 43.1716 41.6253 43.9377 41.6253C44.6645 41.6253 45.303 41.7873 45.853 42.1115C46.4129 42.4258 46.8499 42.8874 47.1642 43.4964C47.4884 44.1053 47.6504 44.8518 47.6504 45.7358ZM41.8014 45.7358C41.8014 46.3251 41.8751 46.8358 42.0224 47.268C42.1698 47.6904 42.4006 48.0145 42.7149 48.2404C43.0292 48.4663 43.4319 48.5793 43.923 48.5793C44.4141 48.5793 44.8168 48.4663 45.1311 48.2404C45.4454 48.0145 45.6762 47.6904 45.8235 47.268C45.9709 46.8358 46.0445 46.3251 46.0445 45.7358C46.0445 45.1268 45.966 44.6161 45.8088 44.2035C45.6615 43.791 45.4307 43.4767 45.1164 43.2606C44.8119 43.0347 44.4092 42.9218 43.9082 42.9218C43.1716 42.9218 42.6363 43.1673 42.3024 43.6584C41.9684 44.1495 41.8014 44.842 41.8014 45.7358Z" fill="#B9F3DE"/>
<path d="M51.1919 49.7137H49.6302V38.5166H51.1919V49.7137Z" fill="#B9F3DE"/>
<path d="M60.6425 45.7358C60.6425 46.3939 60.5541 46.9783 60.3773 47.489C60.2005 47.9998 59.9501 48.4319 59.6259 48.7855C59.3018 49.1391 58.9089 49.4092 58.4473 49.5958C57.9857 49.7726 57.4651 49.861 56.8856 49.861C56.3552 49.861 55.8641 49.7726 55.4123 49.5958C54.9605 49.4092 54.5676 49.1391 54.2337 48.7855C53.9095 48.4319 53.6542 47.9998 53.4676 47.489C53.2809 46.9783 53.1876 46.3889 53.1876 45.721C53.1876 44.8469 53.335 44.1053 53.6296 43.4964C53.9341 42.8874 54.3663 42.4258 54.9261 42.1115C55.4958 41.7873 56.1637 41.6253 56.9298 41.6253C57.6566 41.6253 58.2951 41.7873 58.8451 42.1115C59.405 42.4258 59.842 42.8874 60.1563 43.4964C60.4805 44.1053 60.6425 44.8518 60.6425 45.7358ZM54.7935 45.7358C54.7935 46.3251 54.8672 46.8358 55.0145 47.268C55.1618 47.6904 55.3927 48.0145 55.707 48.2404C56.0213 48.4663 56.424 48.5793 56.9151 48.5793C57.4062 48.5793 57.8089 48.4663 58.1232 48.2404C58.4375 48.0145 58.6683 47.6904 58.8156 47.268C58.963 46.8358 59.0366 46.3251 59.0366 45.7358C59.0366 45.1268 58.9581 44.6161 58.8009 44.2035C58.6536 43.791 58.4228 43.4767 58.1084 43.2606C57.804 43.0347 57.4013 42.9218 56.9003 42.9218C56.1637 42.9218 55.6284 43.1673 55.2944 43.6584C54.9605 44.1495 54.7935 44.842 54.7935 45.7358Z" fill="#B9F3DE"/>
<path d="M65.3626 41.6253C65.8734 41.6253 66.335 41.7235 66.7475 41.9199C67.16 42.1164 67.5087 42.4159 67.7935 42.8186H67.8672L68.044 41.7726H69.3111V49.8168C69.3111 50.5633 69.1785 51.1919 68.9133 51.7026C68.6481 52.2134 68.2405 52.5964 67.6904 52.8518C67.1502 53.117 66.4676 53.2496 65.6425 53.2496C65.0729 53.2496 64.5474 53.2103 64.0661 53.1317C63.5848 53.0532 63.1428 52.9304 62.7401 52.7634V51.3933C63.025 51.5308 63.3245 51.6437 63.6388 51.7321C63.9532 51.8303 64.2871 51.8991 64.6407 51.9384C64.9943 51.9875 65.3577 52.012 65.7309 52.012C66.3792 52.012 66.8801 51.8254 67.2337 51.4522C67.5873 51.0888 67.7641 50.5731 67.7641 49.9052V49.64C67.7641 49.5123 67.769 49.3454 67.7788 49.1391C67.7886 48.923 67.7985 48.7659 67.8083 48.6676H67.7494C67.4743 49.0802 67.1355 49.3847 66.7328 49.5811C66.3399 49.7677 65.8832 49.861 65.3626 49.861C64.3608 49.861 63.575 49.5025 63.0053 48.7855C62.4455 48.0587 62.1655 47.0519 62.1655 45.7652C62.1655 44.9009 62.2932 44.1643 62.5486 43.5553C62.804 42.9365 63.1674 42.4601 63.6388 42.1262C64.1201 41.7922 64.6947 41.6253 65.3626 41.6253ZM65.6867 42.9218C65.2742 42.9218 64.9255 43.0347 64.6407 43.2606C64.3558 43.4767 64.1398 43.7959 63.9924 44.2183C63.8451 44.6406 63.7714 45.1612 63.7714 45.78C63.7714 46.7032 63.9335 47.4055 64.2576 47.8868C64.5916 48.3681 65.0778 48.6087 65.7162 48.6087C66.0894 48.6087 66.4037 48.5596 66.6591 48.4614C66.9243 48.3632 67.1404 48.2109 67.3074 48.0047C67.4842 47.7984 67.6118 47.5381 67.6904 47.2238C67.7788 46.8997 67.823 46.5117 67.823 46.0599V45.7652C67.823 45.0875 67.7444 44.5424 67.5873 44.1299C67.44 43.7075 67.2091 43.4031 66.8948 43.2164C66.5805 43.02 66.1778 42.9218 65.6867 42.9218Z" fill="#B9F3DE"/>
<path d="M78.5946 41.7726V49.7137H77.3423L77.1213 48.6676H77.0476C76.8806 48.9427 76.6645 49.1686 76.3993 49.3454C76.1342 49.5222 75.8444 49.6498 75.5301 49.7284C75.2158 49.8168 74.8917 49.861 74.5577 49.861C73.9389 49.861 73.4135 49.7628 72.9813 49.5664C72.5589 49.3601 72.2348 49.0458 72.0089 48.6234C71.7928 48.1913 71.6848 47.6412 71.6848 46.9734V41.7726H73.2612V46.7376C73.2612 47.3564 73.3889 47.818 73.6443 48.1225C73.9095 48.427 74.3171 48.5793 74.8671 48.5793C75.4172 48.5793 75.8493 48.4712 76.1636 48.2551C76.4779 48.039 76.6989 47.7247 76.8266 47.3122C76.9641 46.8899 77.0329 46.384 77.0329 45.7947V41.7726H78.5946Z" fill="#B9F3DE"/>
<path d="M84.1619 41.6253C84.8593 41.6253 85.4584 41.7726 85.9593 42.0673C86.4603 42.3521 86.8433 42.7646 87.1085 43.3048C87.3835 43.845 87.521 44.4835 87.521 45.2201V46.0746H82.1877C82.2073 46.8899 82.4185 47.5136 82.8212 47.9457C83.2337 48.3779 83.8083 48.594 84.545 48.594C85.0557 48.594 85.5075 48.5498 85.9004 48.4614C86.3031 48.3632 86.7156 48.2207 87.138 48.0341V49.3306C86.7451 49.5074 86.3424 49.64 85.9299 49.7284C85.5272 49.8168 85.0459 49.861 84.486 49.861C83.7199 49.861 83.0422 49.7088 82.4529 49.4043C81.8636 49.0998 81.4019 48.648 81.068 48.0489C80.7439 47.4399 80.5818 46.6934 80.5818 45.8094C80.5818 44.9156 80.7291 44.1593 81.0238 43.5406C81.3283 42.9218 81.7457 42.4503 82.2761 42.1262C82.8163 41.7922 83.4449 41.6253 84.1619 41.6253ZM84.1619 42.8334C83.6021 42.8334 83.1503 43.0151 82.8065 43.3785C82.4725 43.7419 82.2761 44.2576 82.2172 44.9255H85.9593C85.9593 44.5129 85.8955 44.1495 85.7678 43.8352C85.6401 43.5209 85.4437 43.2754 85.1785 43.0986C84.9133 42.9218 84.5744 42.8334 84.1619 42.8334Z" fill="#B9F3DE"/>
<path d="M97.9672 40.4172C97.4466 40.4172 96.9801 40.5105 96.5676 40.6971C96.155 40.8739 95.8015 41.1391 95.5068 41.4927C95.222 41.8463 95.001 42.2735 94.8438 42.7744C94.6965 43.2754 94.6228 43.8401 94.6228 44.4687C94.6228 45.2938 94.7456 46.0108 94.9911 46.6198C95.2367 47.2189 95.605 47.6805 96.0961 48.0047C96.5872 48.3288 97.206 48.4909 97.9525 48.4909C98.4043 48.4909 98.8364 48.4516 99.249 48.373C99.6713 48.2846 100.099 48.1716 100.531 48.0341V49.4043C100.118 49.5614 99.6959 49.6744 99.2637 49.7432C98.8315 49.8217 98.3306 49.861 97.7609 49.861C96.6903 49.861 95.7965 49.64 95.0795 49.198C94.3723 48.756 93.842 48.1274 93.4884 47.3122C93.1348 46.497 92.958 45.5442 92.958 44.454C92.958 43.6584 93.066 42.9316 93.2821 42.2735C93.508 41.6056 93.8321 41.031 94.2545 40.5498C94.6768 40.0685 95.1974 39.7002 95.8162 39.4448C96.4448 39.1796 97.1667 39.047 97.9819 39.047C98.5123 39.047 99.0329 39.1059 99.5436 39.2238C100.054 39.3318 100.516 39.489 100.929 39.6952L100.339 41.0212C99.9954 40.8641 99.6222 40.7266 99.2195 40.6087C98.8266 40.481 98.4092 40.4172 97.9672 40.4172Z" fill="#B9F3DE"/>
<path d="M104.182 49.7137H102.62V38.5166H104.182V49.7137Z" fill="#B9F3DE"/>
<path d="M108.196 41.7726V49.7137H106.634V41.7726H108.196ZM107.43 38.7523C107.666 38.7523 107.872 38.8211 108.049 38.9586C108.225 39.0961 108.314 39.3269 108.314 39.6511C108.314 39.9654 108.225 40.1962 108.049 40.3435C107.872 40.481 107.666 40.5498 107.43 40.5498C107.174 40.5498 106.958 40.481 106.782 40.3435C106.615 40.1962 106.531 39.9654 106.531 39.6511C106.531 39.3269 106.615 39.0961 106.782 38.9586C106.958 38.8211 107.174 38.7523 107.43 38.7523Z" fill="#B9F3DE"/>
<path d="M114.671 41.6253C115.594 41.6253 116.301 41.8561 116.792 42.3177C117.283 42.7794 117.529 43.5209 117.529 44.5424V49.7137H115.982V44.7634C115.982 44.1446 115.849 43.683 115.584 43.3785C115.329 43.0642 114.916 42.907 114.346 42.907C113.541 42.907 112.981 43.1477 112.667 43.629C112.362 44.1102 112.21 44.8027 112.21 45.7063V49.7137H110.648V41.7726H111.886L112.107 42.8334H112.195C112.372 42.5584 112.588 42.3325 112.844 42.1557C113.099 41.9789 113.384 41.8463 113.698 41.7579C114.012 41.6695 114.337 41.6253 114.671 41.6253Z" fill="#B9F3DE"/>
<path d="M121.49 41.7726V49.7137H119.928V41.7726H121.49ZM120.724 38.7523C120.96 38.7523 121.166 38.8211 121.343 38.9586C121.52 39.0961 121.608 39.3269 121.608 39.6511C121.608 39.9654 121.52 40.1962 121.343 40.3435C121.166 40.481 120.96 40.5498 120.724 40.5498C120.469 40.5498 120.253 40.481 120.076 40.3435C119.909 40.1962 119.825 39.9654 119.825 39.6511C119.825 39.3269 119.909 39.0961 120.076 38.9586C120.253 38.8211 120.469 38.7523 120.724 38.7523Z" fill="#B9F3DE"/>
<path d="M127.14 49.861C126.413 49.861 125.774 49.7186 125.224 49.4338C124.674 49.1489 124.247 48.7069 123.943 48.1078C123.638 47.4988 123.486 46.7278 123.486 45.7947C123.486 44.8125 123.648 44.0169 123.972 43.408C124.306 42.799 124.753 42.3521 125.313 42.0673C125.882 41.7726 126.531 41.6253 127.258 41.6253C127.7 41.6253 128.112 41.6744 128.495 41.7726C128.888 41.861 129.212 41.9641 129.467 42.082L128.996 43.349C128.721 43.241 128.426 43.1477 128.112 43.0691C127.808 42.9905 127.518 42.9512 127.243 42.9512C126.752 42.9512 126.344 43.0593 126.02 43.2754C125.706 43.4816 125.47 43.7959 125.313 44.2183C125.165 44.6308 125.092 45.1514 125.092 45.78C125.092 46.3791 125.17 46.885 125.328 47.2975C125.485 47.71 125.715 48.0243 126.02 48.2404C126.334 48.4467 126.722 48.5498 127.184 48.5498C127.626 48.5498 128.014 48.5007 128.348 48.4025C128.682 48.3042 128.996 48.1765 129.291 48.0194V49.3748C129.006 49.5418 128.696 49.6646 128.363 49.7432C128.029 49.8217 127.621 49.861 127.14 49.861Z" fill="#B9F3DE"/>
<path d="M132.727 41.7726V49.7137H131.165V41.7726H132.727ZM131.961 38.7523C132.197 38.7523 132.403 38.8211 132.58 38.9586C132.756 39.0961 132.845 39.3269 132.845 39.6511C132.845 39.9654 132.756 40.1962 132.58 40.3435C132.403 40.481 132.197 40.5498 131.961 40.5498C131.705 40.5498 131.489 40.481 131.313 40.3435C131.146 40.1962 131.062 39.9654 131.062 39.6511C131.062 39.3269 131.146 39.0961 131.313 38.9586C131.489 38.8211 131.705 38.7523 131.961 38.7523Z" fill="#B9F3DE"/>
<path d="M138.303 41.6253C139 41.6253 139.599 41.7726 140.1 42.0673C140.601 42.3521 140.984 42.7646 141.249 43.3048C141.524 43.845 141.662 44.4835 141.662 45.2201V46.0746H136.329C136.348 46.8899 136.559 47.5136 136.962 47.9457C137.375 48.3779 137.949 48.594 138.686 48.594C139.197 48.594 139.648 48.5498 140.041 48.4614C140.444 48.3632 140.857 48.2207 141.279 48.0341V49.3306C140.886 49.5074 140.483 49.64 140.071 49.7284C139.668 49.8168 139.187 49.861 138.627 49.861C137.861 49.861 137.183 49.7088 136.594 49.4043C136.004 49.0998 135.543 48.648 135.209 48.0489C134.885 47.4399 134.723 46.6934 134.723 45.8094C134.723 44.9156 134.87 44.1593 135.165 43.5406C135.469 42.9218 135.887 42.4503 136.417 42.1262C136.957 41.7922 137.586 41.6253 138.303 41.6253ZM138.303 42.8334C137.743 42.8334 137.291 43.0151 136.947 43.3785C136.613 43.7419 136.417 44.2576 136.358 44.9255H140.1C140.1 44.5129 140.036 44.1495 139.909 43.8352C139.781 43.5209 139.585 43.2754 139.319 43.0986C139.054 42.9218 138.715 42.8334 138.303 42.8334Z" fill="#B9F3DE"/>
<path d="M147.633 41.6253C148.556 41.6253 149.263 41.8561 149.754 42.3177C150.245 42.7794 150.491 43.5209 150.491 44.5424V49.7137H148.944V44.7634C148.944 44.1446 148.811 43.683 148.546 43.3785C148.291 43.0642 147.878 42.907 147.309 42.907C146.503 42.907 145.943 43.1477 145.629 43.629C145.325 44.1102 145.172 44.8027 145.172 45.7063V49.7137H143.611V41.7726H144.848L145.069 42.8334H145.158C145.334 42.5584 145.55 42.3325 145.806 42.1557C146.061 41.9789 146.346 41.8463 146.66 41.7579C146.975 41.6695 147.299 41.6253 147.633 41.6253Z" fill="#B9F3DE"/>
<path d="M156.913 41.6253C157.836 41.6253 158.543 41.8561 159.034 42.3177C159.525 42.7794 159.771 43.5209 159.771 44.5424V49.7137H158.224V44.7634C158.224 44.1446 158.091 43.683 157.826 43.3785C157.571 43.0642 157.158 42.907 156.589 42.907C155.783 42.907 155.223 43.1477 154.909 43.629C154.605 44.1102 154.452 44.8027 154.452 45.7063V49.7137H152.891V41.7726H154.128L154.349 42.8334H154.438C154.614 42.5584 154.831 42.3325 155.086 42.1557C155.341 41.9789 155.626 41.8463 155.94 41.7579C156.255 41.6695 156.579 41.6253 156.913 41.6253Z" fill="#B9F3DE"/>
<path d="M165.294 41.6253C165.991 41.6253 166.591 41.7726 167.092 42.0673C167.592 42.3521 167.976 42.7646 168.241 43.3048C168.516 43.845 168.653 44.4835 168.653 45.2201V46.0746H163.32C163.34 46.8899 163.551 47.5136 163.953 47.9457C164.366 48.3779 164.941 48.594 165.677 48.594C166.188 48.594 166.64 48.5498 167.033 48.4614C167.435 48.3632 167.848 48.2207 168.27 48.0341V49.3306C167.877 49.5074 167.475 49.64 167.062 49.7284C166.659 49.8168 166.178 49.861 165.618 49.861C164.852 49.861 164.174 49.7088 163.585 49.4043C162.996 49.0998 162.534 48.648 162.2 48.0489C161.876 47.4399 161.714 46.6934 161.714 45.8094C161.714 44.9156 161.861 44.1593 162.156 43.5406C162.46 42.9218 162.878 42.4503 163.408 42.1262C163.949 41.7922 164.577 41.6253 165.294 41.6253ZM165.294 42.8334C164.734 42.8334 164.282 43.0151 163.939 43.3785C163.605 43.7419 163.408 44.2576 163.349 44.9255H167.092C167.092 44.5129 167.028 44.1495 166.9 43.8352C166.772 43.5209 166.576 43.2754 166.311 43.0986C166.046 42.9218 165.707 42.8334 165.294 42.8334Z" fill="#B9F3DE"/>
</svg>
